<?xml version="1.0" standalone="no"?>
<!DOCTYPE svg PUBLIC "-//W3C//DTD SVG 20010904//EN"
 "http://www.w3.org/TR/2001/REC-SVG-20010904/DTD/svg10.dtd">
<svg version="1.0" xmlns="http://www.w3.org/2000/svg"
 width="600.000000pt" height="600.000000pt" viewBox="0 0 600.000000 600.000000"
 preserveAspectRatio="xMidYMid meet">
<metadata>
Created by potrace 1.14, written by Peter Selinger 2001-2017
</metadata>
<g transform="translate(0.000000,600.000000) scale(0.100000,-0.100000)"
fill="#000000" stroke="none">
<path d="M3310 5600 c0 -3 -11 -7 -25 -8 -28 -2 -118 -42 -123 -54 -2 -4 -8
-8 -14 -8 -15 0 -58 -37 -51 -44 3 -3 -1 -6 -10 -6 -9 0 -17 -4 -17 -8 0 -5
-13 -21 -28 -38 -30 -32 -54 -67 -88 -129 -12 -23 -28 -39 -37 -39 -9 1 -14
-2 -12 -7 3 -4 -4 -7 -15 -6 -11 1 -20 5 -20 10 0 4 -6 5 -12 0 -19 -11 -88
-10 -88 2 0 6 -3 7 -8 0 -4 -5 -13 -11 -20 -13 -27 -5 17 51 76 98 48 38 41
72 -23 106 -31 16 -246 7 -277 -12 -8 -5 -37 -13 -68 -18 -8 -2 -31 -9 -50
-17 -19 -7 -38 -12 -42 -11 -5 1 -8 -2 -8 -6 0 -5 -6 -9 -13 -9 -7 0 -47 -16
-90 -36 -44 -20 -83 -37 -88 -37 -5 0 -9 -4 -9 -8 0 -5 -17 -16 -37 -26 -31
-14 -139 -80 -178 -108 -52 -38 -185 -147 -218 -180 -23 -22 -43 -35 -45 -29
-2 6 -9 11 -17 11 -7 0 -18 7 -25 15 -12 14 -20 19 -112 68 -52 27 -103 48
-133 53 -11 3 -27 7 -35 11 -30 13 -154 19 -200 9 -54 -11 -92 -25 -100 -37
-3 -4 -14 -9 -25 -11 -11 -1 -22 -6 -25 -10 -3 -4 -25 -20 -49 -36 -45 -31
-181 -160 -181 -173 0 -4 -11 -21 -25 -37 -28 -33 -139 -242 -129 -242 4 0 1
-6 -5 -14 -19 -22 -25 -151 -10 -204 15 -55 61 -143 98 -186 44 -52 155 -156
183 -174 43 -25 42 -40 -5 -69 -102 -63 -247 -202 -317 -303 -13 -19 -27 -37
-30 -40 -10 -10 -41 -66 -81 -149 -30 -62 -39 -90 -34 -111 7 -33 23 -49 45
-45 8 2 35 6 59 10 l43 6 -65 -83 c-121 -155 -148 -222 -199 -488 -37 -199
-32 -241 49 -378 24 -41 43 -78 43 -83 0 -5 4 -9 9 -9 5 0 14 -13 21 -30 7
-16 16 -30 21 -30 5 0 9 -6 9 -13 0 -7 8 -22 18 -33 9 -10 34 -44 55 -75 21
-31 51 -70 67 -87 16 -18 27 -32 26 -32 -7 0 87 -102 184 -199 97 -97 170
-163 224 -201 23 -16 61 -48 82 -68 8 -7 14 -10 14 -5 0 4 4 3 8 -3 9 -14 128
-94 140 -94 5 0 16 -8 25 -18 9 -10 32 -24 52 -32 19 -8 35 -17 35 -22 0 -4 9
-8 20 -8 11 0 20 -4 20 -10 0 -5 6 -10 14 -10 7 0 19 -7 26 -15 7 -9 15 -13
18 -10 3 3 25 -6 49 -20 23 -14 43 -22 43 -18 0 4 4 4 8 -2 10 -15 49 -35 67
-35 18 0 18 0 20 -358 l1 -273 26 -25 c13 -14 31 -26 39 -27 8 -2 19 -5 24 -9
19 -12 93 34 148 91 31 32 81 95 112 141 30 46 57 85 58 86 1 2 2 -34 0 -79
-1 -45 -2 -129 -3 -187 l-2 -105 33 -27 c75 -63 182 -4 317 172 23 30 46 60
52 67 5 7 10 15 10 17 0 3 16 27 36 53 l37 48 -6 -148 c-4 -82 -9 -152 -12
-157 -14 -22 46 -107 67 -94 4 3 8 1 8 -4 0 -5 12 -8 28 -6 15 1 32 2 38 3 25
2 176 164 236 252 35 52 100 166 98 171 -1 2 4 17 10 33 6 17 18 57 27 90 8
33 18 63 21 67 4 4 24 8 45 10 20 1 37 5 37 9 0 4 12 6 28 5 15 -2 32 -1 37 2
6 4 21 8 35 10 14 2 50 9 80 17 30 8 66 16 80 19 14 2 39 9 55 16 17 6 30 11
30 10 0 -6 91 25 96 33 3 5 9 8 13 8 3 -1 7 -1 9 0 1 0 16 3 32 5 17 3 32 9
33 15 2 5 14 9 26 9 12 0 31 7 42 15 10 8 24 15 31 15 13 0 245 109 253 119 3
3 26 17 53 30 26 13 47 28 47 33 0 5 4 7 9 4 5 -3 14 1 21 9 7 8 19 15 26 15
8 0 14 5 14 11 0 5 4 8 9 5 5 -3 11 1 15 9 3 8 10 15 17 15 11 0 88 56 100 73
3 5 8 7 11 5 4 -3 75 51 115 89 13 12 23 20 23 17 0 -3 16 11 37 31 20 19 40
35 45 35 4 0 8 5 8 11 0 6 9 18 21 27 19 17 19 18 2 37 -102 113 -193 240
-232 325 -57 124 -102 304 -71 285 5 -3 34 -8 64 -9 29 -2 58 -6 64 -10 6 -3
13 -3 16 2 2 4 17 7 33 6 77 -4 83 55 13 137 -22 26 -40 50 -40 54 0 3 -8 15
-18 25 -36 39 -104 192 -129 291 -14 55 -22 103 -19 106 3 4 17 1 31 -5 14 -7
32 -12 39 -12 29 0 84 144 126 330 18 75 28 100 50 120 15 14 33 26 41 28 18
5 98 40 131 57 14 8 31 15 37 15 6 0 54 -44 108 -98 54 -54 120 -116 147 -137
41 -33 52 -37 75 -29 20 7 29 20 39 59 28 112 30 138 42 432 0 10 79 74 122
98 62 35 194 120 196 127 2 4 12 8 22 8 10 0 20 7 24 15 3 8 12 15 20 15 41 0
166 174 180 251 3 13 5 24 6 24 1 0 3 23 4 50 4 96 -43 219 -112 291 -38 41
-118 95 -126 87 -3 -4 -6 -1 -6 5 0 6 -7 9 -15 6 -8 -4 -15 -1 -15 6 0 6 -5 8
-10 5 -6 -4 -16 -2 -23 3 -16 12 -237 13 -237 0 0 -5 -4 -7 -9 -4 -19 12 -60
-34 -63 -72 -2 -20 -7 -37 -13 -38 -5 0 -17 -3 -25 -7 -25 -10 -105 -29 -106
-26 0 2 -7 -1 -15 -7 -14 -11 -62 -27 -89 -28 -8 -1 -21 -5 -28 -10 -7 -4 -16
-5 -19 -2 -3 3 -11 2 -17 -3 -6 -5 -36 -14 -66 -22 -30 -7 -57 -14 -60 -14 -3
-1 -23 -5 -45 -10 -22 -4 -44 -10 -50 -14 -5 -3 -17 -7 -26 -8 -13 -2 -58 -12
-214 -49 -11 -3 -30 -7 -42 -10 -13 -2 -35 -7 -50 -10 -16 -3 -50 -8 -78 -11
l-50 -4 -62 83 c-62 83 -97 125 -192 228 -28 30 -51 58 -51 62 0 3 16 34 35
68 19 34 35 64 35 67 0 2 9 24 20 49 23 50 40 128 40 185 0 104 -79 224 -237
359 -24 20 -67 45 -138 79 -84 39 -97 44 -122 44 -13 0 -23 3 -23 6 0 3 -25 6
-55 6 -30 1 -55 -2 -55 -5z"/>
</g>
</svg>
